<?xml version="1.0" standalone="no"?>
<!DOCTYPE svg PUBLIC "-//W3C//DTD SVG 1.1//EN"
"http://www.w3.org/Graphics/SVG/1.1/DTD/svg11.dtd">

<svg width="200" height="204" view_box="0 0 200 204"
xmlns="http://www.w3.org/2000/svg"
xmlns:link="http://www.w3.org/1999/xlink">\n\n<desc>Généré par Mocodo 2.3.7 le Sat, 28 Dec 2019 03:14:21</desc>

<rect id="frame" x="0" y="0" width="200" height="204" fill="#f5f5f5" stroke="none" stroke-width="0"/>

<!-- Entity RECIPE -->
<g id="entity-RECIPE">
	<g id="frame-RECIPE">
		<rect x="9" y="9" width="82" height="25" fill="#80cdc1" stroke="#80cdc1" stroke-width="0"/>
		<rect x="9" y="34.0" width="82" height="161" fill="#c7eae5" stroke="#c7eae5" stroke-width="0"/>
		<rect x="9" y="9" width="82" height="186" fill="none" stroke="#35978f" stroke-width="2"/>
		<line x1="9" y1="34" x2="91" y2="34" stroke="#35978f" stroke-width="1"/>
	</g>
	<text x="27" y="26.7" fill="#000000" font-family="Verdana" font-size="12">RECIPE</text>
	<text x="14" y="51.7" fill="#000000" font-family="Verdana" font-size="12">id</text>
	<line x1="14" y1="54" x2="26" y2="54" stroke="#000000" stroke-width="1"/>
	<text x="14" y="68.7" fill="#000000" font-family="Verdana" font-size="12">name</text>
	<text x="14" y="85.7" fill="#000000" font-family="Verdana" font-size="12">resume</text>
	<text x="14" y="102.8" fill="#000000" font-family="Verdana" font-size="12">img</text>
	<text x="14" y="119.8" fill="#000000" font-family="Verdana" font-size="12">ingredient</text>
	<text x="14" y="136.8" fill="#000000" font-family="Verdana" font-size="12">preparation</text>
	<text x="14" y="153.8" fill="#000000" font-family="Verdana" font-size="12">cook</text>
	<text x="14" y="170.8" fill="#000000" font-family="Verdana" font-size="12">create_at</text>
	<text x="14" y="187.8" fill="#000000" font-family="Verdana" font-size="12">update_at</text>
</g>

<!-- Entity USERS -->
<g id="entity-USERS">
	<g id="frame-USERS">
		<rect x="123" y="51" width="68" height="25" fill="#80cdc1" stroke="#80cdc1" stroke-width="0"/>
		<rect x="123" y="76.0" width="68" height="77" fill="#c7eae5" stroke="#c7eae5" stroke-width="0"/>
		<rect x="123" y="51" width="68" height="102" fill="none" stroke="#35978f" stroke-width="2"/>
		<line x1="123" y1="76" x2="191" y2="76" stroke="#35978f" stroke-width="1"/>
	</g>
	<text x="136" y="68.7" fill="#000000" font-family="Verdana" font-size="12">USERS</text>
	<text x="128" y="93.7" fill="#000000" font-family="Verdana" font-size="12">id</text>
	<line x1="128" y1="96" x2="140" y2="96" stroke="#000000" stroke-width="1"/>
	<text x="128" y="110.8" fill="#000000" font-family="Verdana" font-size="12">pseudo</text>
	<text x="128" y="127.8" fill="#000000" font-family="Verdana" font-size="12">password</text>
	<text x="128" y="144.8" fill="#000000" font-family="Verdana" font-size="12">rank</text>
</g>
</svg>